Run_30002
nRows=4
nColumns=164

# SIMM Motion File Header:
name Run_30002
datacolumns 164
datarows 4
otherdata 1
range 2.72500000 2.75000000
endheader
time	pelvis_tilt	pelvis_list	pelvis_rotation	pelvis_tx	pelvis_ty	pelvis_tz	hip_flexion_r	hip_adduction_r	hip_rotation_r	knee_angle_r	ankle_angle_r	hip_flexion_l	hip_adduction_l	hip_rotation_l	knee_angle_l	ankle_angle_l	lumbar_extension	lumbar_bending	lumbar_rotation	arm_flex_r	arm_add_r	arm_rot_r	elbow_flex_r	pro_sup_r	arm_flex_l	arm_add_l	arm_rot_l	elbow_flex_l	pro_sup_l	subtalar_angle_r	mtp_angle_r	subtalar_angle_l	mtp_angle_l	wrist_flex_r	wrist_dev_r	wrist_flex_l	wrist_dev_l	LASI_tx	LASI_ty	LASI_tz	RASI_tx	RASI_ty	RASI_tz	LPSI_tx	LPSI_ty	LPSI_tz	RPSI_tx	RPSI_ty	RPSI_tz	RTH1_tx	RTH1_ty	RTH1_tz	RTH2_tx	RTH2_ty	RTH2_tz	RTH3_tx	RTH3_ty	RTH3_tz	LTH1_tx	LTH1_ty	LTH1_tz	LTH2_tx	LTH2_ty	LTH2_tz	LTH3_tx	LTH3_ty	LTH3_tz	RTB1_tx	RTB1_ty	RTB1_tz	RTB2_tx	RTB2_ty	RTB2_tz	RTB3_tx	RTB3_ty	RTB3_tz	LTB1_tx	LTB1_ty	LTB1_tz	LTB2_tx	LTB2_ty	LTB2_tz	LTB3_tx	LTB3_ty	LTB3_tz	RCAL_tx	RCAL_ty	RCAL_tz	RTOE_tx	RTOE_ty	RTOE_tz	RMT5_tx	RMT5_ty	RMT5_tz	LCAL_tx	LCAL_ty	LCAL_tz	LTOE_tx	LTOE_ty	LTOE_tz	LMT5_tx	LMT5_ty	LMT5_tz	LACR_tx	LACR_ty	LACR_tz	RACR_tx	RACR_ty	RACR_tz	CLAV_tx	CLAV_ty	CLAV_tz	C7_tx	C7_ty	C7_tz	RUA1_tx	RUA1_ty	RUA1_tz	RUA2_tx	RUA2_ty	RUA2_tz	RUA3_tx	RUA3_ty	RUA3_tz	RLEL_tx	RLEL_ty	RLEL_tz	RMEL_tx	RMEL_ty	RMEL_tz	LUA1_tx	LUA1_ty	LUA1_tz	LUA2_tx	LUA2_ty	LUA2_tz	LUA3_tx	LUA3_ty	LUA3_tz	LLEL_tx	LLEL_ty	LLEL_tz	LMEL_tx	LMEL_ty	LMEL_tz	RFAsuperior_tx	RFAsuperior_ty	RFAsuperior_tz	RFAradius_tx	RFAradius_ty	RFAradius_tz	RFAulna_tx	RFAulna_ty	RFAulna_tz	LFAsuperior_tx	LFAsuperior_ty	LFAsuperior_tz	LFAradius_tx	LFAradius_ty	LFAradius_tz	LFAulna_tx	LFAulna_ty	LFAulna_tz
      2.72500000	      0.76000101	     -6.85422750	     -8.23747593	      0.93050637	      1.01886154	     -0.33026624	     26.80273913	     15.89021400	      2.04490290	    -45.96834094	     19.81710270	     -0.73189814	     -3.83579820	     -7.82688397	    -85.37718271	      0.51356710	    -19.85247485	      8.66582095	     -4.11959536	    -21.35747820	    -31.74298879	     -2.17705677	     96.98398957	    129.54189976	    -14.29680423	    -20.64389933	      9.30999513	    114.61524040	    100.15623513	      0.00000000	      0.00000000	      0.00000000	      0.00000000	      0.00000000	      0.00000000	      0.00000000	      0.00000000	      0.94381716	      1.01408279	     -0.46635235	      0.91229230	      1.04216364	     -0.20890391	      0.75414478	      1.05282275	     -0.39853334	      0.74140903	      1.05169557	     -0.32013631	      0.87871886	      0.87139579	     -0.15783382	      0.96852621	      0.78614519	     -0.16545171	      0.94617125	      0.66034932	     -0.21525709	      0.87441859	      0.79623113	     -0.50608791	      0.91500634	      0.67183259	     -0.48803592	      0.83805529	      0.56897971	     -0.46881444	      1.05724944	      0.39494960	     -0.30978069	      1.02412724	      0.32653299	     -0.24776898	      1.00778299	      0.23495845	     -0.32518709	      0.74177350	      0.41396745	     -0.40530955	      0.64828131	      0.41397849	     -0.45928225	      0.53725987	      0.37963309	     -0.39841624	      0.85463573	      0.10330782	     -0.34939574	      1.08843783	      0.07342049	     -0.36704461	      1.01765171	      0.05050731	     -0.27081306	      0.39806358	      0.46958166	     -0.38035473	      0.39064106	      0.23598429	     -0.38383003	      0.35821144	      0.30977648	     -0.46394217	      0.98507049	      1.49833718	     -0.49843709	      0.90076359	      1.49597790	     -0.16264774	      0.98547468	      1.43934228	     -0.28294187	      0.86899633	      1.53344156	     -0.34348919	      0.84879188	      1.40729317	     -0.08220624	      0.82170937	      1.32132595	     -0.08210493	      0.74929324	      1.34431228	     -0.05954395	      0.68248934	      1.23078252	     -0.00534015	      0.66345112	      1.21656486	     -0.08399050	      0.97684720	      1.40619560	     -0.57358683	      0.97479975	      1.33421344	     -0.56648859	      0.88388099	      1.33672002	     -0.60235825	      0.87621842	      1.17770866	     -0.66161793	      0.80745003	      1.17465819	     -0.60397387	      0.77362044	      1.17167147	      0.00412027	      0.90510891	      1.06885796	     -0.07530411	      0.88700841	      1.05299910	     -0.00637954	      0.95751076	      1.15904904	     -0.60821496	      1.04924121	      1.15951066	     -0.44619644	      1.05547068	      1.09441300	     -0.47816183
      2.73333300	      1.15864199	     -7.52898066	     -8.22119440	      0.92811271	      1.01715054	     -0.33064944	     25.23639450	     16.35044786	      1.80036333	    -46.68145664	     21.56970692	      1.28870121	     -4.81685165	     -7.29742872	    -88.49676175	      1.36770230	    -20.77724559	      9.34770989	     -2.99523291	    -18.30003983	    -31.81242250	     -1.64448770	     95.60515898	    130.13009741	    -13.72990248	    -20.13956346	      9.70688312	    111.81099138	    100.16349688	      0.00000000	      0.00000000	      0.00000000	      0.00000000	      0.00000000	      0.00000000	      0.00000000	      0.00000000	      0.94149528	      1.01153558	     -0.46727520	      0.91017927	      1.04252429	     -0.20769004	      0.75204795	      1.05036701	     -0.39921396	      0.73941980	      1.04986546	     -0.32099374	      0.87497705	      0.86918314	     -0.15778789	      0.96150964	      0.78123104	     -0.16440712	      0.93790957	      0.65712306	     -0.21597223	      0.87884161	      0.79222573	     -0.50571758	      0.92581018	      0.66914130	     -0.48824511	      0.85306790	      0.56469426	     -0.46877321	      1.04347670	      0.38881546	     -0.30839871	      1.00741267	      0.32097389	     -0.24713899	      0.98750401	      0.23109639	     -0.32480538	      0.76100424	      0.41407522	     -0.40614501	      0.66805320	      0.41248845	     -0.46042680	      0.55632232	      0.37962588	     -0.40019546	      0.82993924	      0.10361800	     -0.34937992	      1.06367707	      0.07258909	     -0.36701560	      0.99273040	      0.05018346	     -0.27067052	      0.41631786	      0.47121002	     -0.38340522	      0.41009506	      0.23754145	     -0.38660296	      0.37852030	      0.31105043	     -0.46722589	      0.98238270	      1.49431967	     -0.49932602	      0.90102167	      1.49177801	     -0.16205364	      0.98520657	      1.43501669	     -0.28372454	      0.86820606	      1.53059942	     -0.34338806	      0.85186055	      1.40092687	     -0.08188913	      0.82880047	      1.31318386	     -0.08092201	      0.75590886	      1.33329218	     -0.05666805	      0.69626611	      1.21690800	      0.00027723	      0.67512823	      1.20136946	     -0.07765198	      0.97251652	      1.40221859	     -0.57430459	      0.97018840	      1.32994384	     -0.56682457	      0.87918229	      1.33284112	     -0.60210448	      0.87043228	      1.17327783	     -0.66052557	      0.80241118	      1.17032515	     -0.60224346	      0.78977293	      1.16024734	      0.00797672	      0.92121757	      1.05997134	     -0.07306415	      0.90470753	      1.04454398	     -0.00317573	      0.95171039	      1.15111559	     -0.60851924	      1.04646144	      1.14414630	     -0.44828074	      1.05025511	      1.07978519	     -0.48190829
      2.74166700	      1.31532097	     -8.27015857	     -8.14438989	      0.92580478	      1.01570287	     -0.33077167	     23.82991901	     16.92627357	      1.60525899	    -47.20559775	     23.07454754	      3.64793158	     -5.93495264	     -6.57275127	    -91.33094437	      2.00384649	    -21.40366441	     10.11357454	     -1.84766458	    -15.42164614	    -31.78951284	     -1.33198297	     94.53210621	    130.88237701	    -13.21752281	    -19.64663685	     10.10588705	    109.11483004	    100.01861931	      0.00000000	      0.00000000	      0.00000000	      0.00000000	      0.00000000	      0.00000000	      0.00000000	      0.00000000	      0.93931662	      1.00950875	     -0.46798918	      0.90811235	      1.04292280	     -0.20663110	      0.75004909	      1.04860731	     -0.39948298	      0.73731640	      1.04909510	     -0.32109856	      0.87119510	      0.86824900	     -0.15720501	      0.95473115	      0.77766746	     -0.16329298	      0.92931694	      0.65477427	     -0.21543628	      0.88314156	      0.78887321	     -0.50529604	      0.93666488	      0.66727020	     -0.48826093	      0.86868619	      0.56117204	     -0.46871623	      1.02851554	      0.38373726	     -0.30739442	      0.99048865	      0.31677007	     -0.24671831	      0.96700086	      0.22840745	     -0.32454586	      0.78096443	      0.41408618	     -0.40672958	      0.68853023	      0.41099982	     -0.46144257	      0.57633742	      0.37880246	     -0.40204024	      0.80527834	      0.10413336	     -0.34926473	      1.03883962	      0.07204957	     -0.36686229	      0.96777871	      0.04993096	     -0.27049242	      0.43516979	      0.47116520	     -0.38637496	      0.43091010	      0.23742691	     -0.38945962	      0.39982429	      0.31068688	     -0.47058461	      0.97950465	      1.49111947	     -0.49997694	      0.90200134	      1.48813960	     -0.16148180	      0.98471784	      1.43148471	     -0.28472799	      0.86688238	      1.52816024	     -0.34306881	      0.85454535	      1.39656395	     -0.08185920	      0.83655712	      1.30688364	     -0.07894086	      0.76276877	      1.32349119	     -0.05535876	      0.71077851	      1.20470224	      0.00535113	      0.68745701	      1.18768793	     -0.07191480	      0.96773883	      1.39946328	     -0.57508385	      0.96549088	      1.32675884	     -0.56735592	      0.87431202	      1.32991570	     -0.60152878	      0.86454953	      1.16989339	     -0.65928373	      0.79706886	      1.16693096	     -0.60043910	      0.80691937	      1.15102428	      0.01098231	      0.93837221	      1.05338140	     -0.07155627	      0.92349477	      1.03831168	     -0.00076619	      0.94596027	      1.14535780	     -0.60784665	      1.04345680	      1.12998393	     -0.45077147	      1.04456246	      1.06647483	     -0.48603073
      2.75000000	      1.25394271	     -8.95649084	     -8.02504032	      0.92356423	      1.01443517	     -0.33086351	     22.60917677	     17.45576844	      1.42934733	    -47.61632068	     24.28981810	      6.32707319	     -6.99178551	     -5.65911443	    -93.83415907	      2.44851154	    -21.74630618	     10.86347392	     -0.67857119	    -12.84024433	    -31.71870498	     -1.27184585	     93.92694488	    131.66413826	    -12.75499666	    -19.22993042	     10.60981822	    106.65358815	     99.63246314	      0.00000000	      0.00000000	      0.00000000	      0.00000000	      0.00000000	      0.00000000	      0.00000000	      0.00000000	      0.93722516	      1.00792178	     -0.46859218	      0.90611312	      1.04281027	     -0.20620312	      0.74808446	      1.04744013	     -0.39950067	      0.73510458	      1.04905795	     -0.32083799	      0.86712727	      0.86818531	     -0.15639396	      0.94835541	      0.77557776	     -0.16225614	      0.92057649	      0.65296233	     -0.21363562	      0.88732617	      0.78659140	     -0.50501000	      0.94749318	      0.66677416	     -0.48812143	      0.88463569	      0.55873144	     -0.46859423	      1.01252179	      0.37973410	     -0.30663319	      0.97327323	      0.31374336	     -0.24617095	      0.94639365	      0.22661164	     -0.32411608	      0.80145763	      0.41421663	     -0.40707096	      0.70953452	      0.40959978	     -0.46226864	      0.59710444	      0.37732624	     -0.40381412	      0.78077872	      0.10491661	     -0.34910875	      1.01409014	      0.07150954	     -0.36653171	      0.94281720	      0.04958423	     -0.27023430	      0.45431614	      0.46944824	     -0.38922421	      0.45289889	      0.23568868	     -0.39228928	      0.42203704	      0.30859411	     -0.47387591	      0.97634391	      1.48878006	     -0.50063584	      0.90355035	      1.48510974	     -0.16090444	      0.98395864	      1.42899770	     -0.28589644	      0.86549268	      1.52640109	     -0.34224122	      0.85739575	      1.39320767	     -0.08167131	      0.84463163	      1.30205594	     -0.07671137	      0.76981471	      1.31482719	     -0.05517115	      0.72550695	      1.19440778	      0.00982606	      0.70016876	      1.17578466	     -0.06677263	      0.96268694	      1.39749150	     -0.57588954	      0.96067442	      1.32442355	     -0.56802381	      0.86929567	      1.32773870	     -0.60079446	      0.85850470	      1.16771645	     -0.65822843	      0.79135816	      1.16472620	     -0.59897828	      0.82422740	      1.14410083	      0.01324167	      0.95608856	      1.04959823	     -0.07100593	      0.94307653	      1.03466141	      0.00045165	      0.94048613	      1.14193673	     -0.60655432	      1.03999612	      1.11754133	     -0.45364960	      1.03817676	      1.05494030	     -0.49033718
